<svg width="30" height="30" viewBox="0 0 30 30" fill="none" xmlns="http://www.w3.org/2000/svg">
<g clip-path="url(#clip0_7_197)">
<path d="M25.1287 5.61521C23.28 4.75271 21.2983 4.11521 19.226 3.75271C19.2076 3.74905 19.1885 3.75141 19.1713 3.75947C19.1542 3.76753 19.14 3.7809 19.1306 3.79771C18.8768 4.25896 18.5941 4.86021 18.3959 5.33521C16.198 4.99551 13.9636 4.99551 11.7658 5.33521C11.545 4.80879 11.2961 4.29549 11.0202 3.79771C11.0109 3.78069 10.9967 3.76702 10.9797 3.75854C10.9626 3.75005 10.9435 3.74714 10.9248 3.75021C8.85368 4.11271 6.87201 4.75021 5.02205 5.61396C5.00614 5.62087 4.99264 5.63264 4.98339 5.64771C1.22305 11.3665 0.192344 16.944 0.698636 22.4515C0.700045 22.465 0.704092 22.478 0.710532 22.4898C0.716972 22.5016 0.725669 22.512 0.736094 22.5202C2.9309 24.1732 5.37892 25.4325 7.97764 26.2452C7.99575 26.251 8.01513 26.251 8.03324 26.2452C8.05134 26.2394 8.06734 26.2281 8.07914 26.2127C8.63739 25.4377 9.13522 24.619 9.56055 23.759C9.58593 23.709 9.56176 23.649 9.51101 23.629C8.73043 23.3249 7.97411 22.9579 7.24901 22.5315C7.23598 22.5238 7.225 22.5128 7.21706 22.4997C7.20912 22.4865 7.20446 22.4715 7.2035 22.456C7.20254 22.4405 7.20531 22.4251 7.21157 22.4109C7.21783 22.3968 7.22737 22.3846 7.23934 22.3752C7.39159 22.259 7.54384 22.1377 7.68884 22.0165C7.7019 22.0056 7.71762 21.9986 7.73426 21.9964C7.7509 21.9942 7.76781 21.9968 7.78309 22.004C12.5282 24.209 17.6673 24.209 22.3568 22.004C22.3721 21.9964 22.3892 21.9934 22.4061 21.9954C22.423 21.9974 22.439 22.0043 22.4523 22.0152C22.5973 22.1377 22.7483 22.259 22.9018 22.3752C22.9139 22.3844 22.9236 22.3965 22.93 22.4105C22.9365 22.4244 22.9395 22.4399 22.9388 22.4554C22.938 22.4708 22.9336 22.4859 22.9259 22.4992C22.9182 22.5125 22.9074 22.5235 22.8945 22.5315C22.1719 22.9615 21.4203 23.3252 20.6313 23.6277C20.6192 23.6323 20.6081 23.6394 20.5989 23.6488C20.5897 23.6581 20.5825 23.6693 20.5778 23.6817C20.5731 23.6942 20.571 23.7075 20.5717 23.7208C20.5724 23.7341 20.5758 23.7471 20.5818 23.759C21.0168 24.6177 21.5146 25.4352 22.062 26.2115C22.0734 26.2274 22.0892 26.2393 22.1074 26.2456C22.1255 26.2518 22.1451 26.2521 22.1635 26.2465C24.7666 25.436 27.2187 24.1762 29.4159 22.5202C29.4266 22.5125 29.4356 22.5024 29.4423 22.4908C29.4489 22.4791 29.4531 22.4662 29.4546 22.4527C30.0587 16.0852 28.442 10.5527 25.1662 5.65021C25.1581 5.63428 25.1449 5.62186 25.1287 5.61521ZM10.2698 19.0977C8.84159 19.0977 7.66347 17.7615 7.66347 16.1227C7.66347 14.4827 8.81864 13.1477 10.2698 13.1477C11.7319 13.1477 12.8992 14.494 12.8762 16.1227C12.8762 17.7627 11.7211 19.0977 10.2698 19.0977ZM19.9063 19.0977C18.4768 19.0977 17.2999 17.7615 17.2999 16.1227C17.2999 14.4827 18.4539 13.1477 19.9063 13.1477C21.3684 13.1477 22.5356 14.494 22.5127 16.1227C22.5127 17.7627 21.3696 19.0977 19.9063 19.0977Z" fill="#FFF8E7" fill-opacity="0.9"/>
</g>
<defs>
<clipPath id="clip0_7_197">
<rect width="29" height="30" fill="white" transform="translate(0.578979)"/>
</clipPath>
</defs>
</svg>
