<svg width="30" height="29" viewBox="0 0 30 29" fill="none" xmlns="http://www.w3.org/2000/svg">
<g clip-path="url(#clip0_7_200)">
<path d="M29.579 14.5C29.579 22.504 23.083 29 15.079 29C7.07498 29 0.578979 22.504 0.578979 14.5C0.578979 6.496 7.07498 0 15.079 0C23.083 0 29.579 6.496 29.579 14.5Z" fill="#FFF8E7" fill-opacity="0.9"/>
<path d="M7.74197 14.9929L7.79997 14.9059L11.57 9.01886C11.628 8.93186 11.744 8.93186 11.802 9.04786C12.44 10.4689 12.962 12.2089 12.73 13.3109C12.614 13.7749 12.324 14.3839 11.976 14.9349C11.947 15.0219 11.889 15.1089 11.831 15.1669C11.802 15.1959 11.773 15.2249 11.715 15.2249H7.82897C7.74197 15.1959 7.68397 15.0799 7.74197 14.9929Z" fill="black"/>
<path d="M24.533 16.095V17.023C24.533 17.081 24.504 17.11 24.446 17.139C24.156 17.255 23.141 17.719 22.735 18.299C21.662 19.778 20.85 21.895 19.052 21.895H11.512C8.84401 21.895 6.66901 19.72 6.66901 17.023V16.936C6.66901 16.878 6.72701 16.82 6.78501 16.82H11.019C11.106 16.82 11.164 16.907 11.164 16.965C11.135 17.226 11.193 17.516 11.309 17.777C11.57 18.299 12.092 18.589 12.643 18.589H14.731V16.965H12.672C12.556 16.965 12.498 16.849 12.556 16.762C12.585 16.733 12.614 16.704 12.643 16.646C12.846 16.356 13.107 15.95 13.397 15.457C13.6 15.138 13.774 14.761 13.919 14.413C13.948 14.355 13.977 14.297 14.006 14.21C14.035 14.094 14.093 13.978 14.122 13.891C14.151 13.804 14.18 13.717 14.209 13.63C14.267 13.34 14.296 13.021 14.296 12.673C14.296 12.557 14.296 12.412 14.267 12.267C14.267 12.122 14.238 11.977 14.238 11.832C14.238 11.716 14.209 11.571 14.18 11.455C14.151 11.252 14.122 11.078 14.064 10.875L14.035 10.817C14.006 10.701 13.977 10.556 13.919 10.44C13.803 10.034 13.658 9.62799 13.513 9.27999C13.455 9.13499 13.397 8.98999 13.339 8.84499C13.252 8.64199 13.165 8.43899 13.078 8.26499C13.049 8.17799 12.991 8.11999 12.962 8.03299C12.933 7.94599 12.875 7.85899 12.846 7.77199C12.817 7.71399 12.788 7.65599 12.759 7.59799L12.498 7.13399C12.469 7.07599 12.527 6.98899 12.585 7.01799L14.18 7.45299L14.383 7.51099L14.615 7.56899L14.702 7.59799V6.64099C14.702 6.17699 15.079 5.79999 15.514 5.79999C15.746 5.79999 15.949 5.88699 16.094 6.03199C16.239 6.17699 16.326 6.37999 16.326 6.61199V8.00399L16.5 8.06199C16.5 8.06199 16.529 8.06199 16.529 8.09099C16.558 8.11999 16.616 8.17799 16.703 8.23599C16.761 8.29399 16.819 8.35199 16.906 8.40999C17.051 8.52599 17.254 8.69999 17.457 8.87399C17.515 8.93199 17.573 8.96099 17.602 9.01899C17.863 9.25099 18.153 9.54099 18.443 9.85999C18.53 9.94699 18.588 10.034 18.675 10.121C18.762 10.208 18.82 10.324 18.907 10.411C18.994 10.527 19.11 10.672 19.197 10.788C19.226 10.846 19.284 10.904 19.313 10.991C19.429 11.165 19.516 11.339 19.632 11.513C19.661 11.6 19.719 11.687 19.748 11.774C19.864 12.006 19.951 12.238 19.98 12.499C20.009 12.557 20.009 12.615 20.009 12.644C20.038 12.702 20.038 12.789 20.038 12.876C20.067 13.137 20.038 13.369 20.009 13.63C19.98 13.746 19.951 13.833 19.922 13.949C19.893 14.036 19.864 14.152 19.806 14.268C19.719 14.471 19.603 14.674 19.487 14.877C19.458 14.935 19.4 15.022 19.342 15.109C19.284 15.196 19.226 15.254 19.197 15.341C19.139 15.428 19.052 15.515 18.994 15.602C18.936 15.689 18.878 15.776 18.791 15.863C18.704 15.979 18.588 16.095 18.501 16.211C18.443 16.269 18.385 16.356 18.298 16.414C18.24 16.472 18.182 16.559 18.095 16.617C18.008 16.704 17.921 16.791 17.834 16.849L17.66 16.994C17.631 17.023 17.602 17.023 17.573 17.023H16.297V18.647H17.892C18.24 18.647 18.588 18.531 18.849 18.299C18.936 18.212 19.342 17.864 19.835 17.342C19.864 17.313 19.864 17.313 19.893 17.313L24.388 15.95C24.475 15.921 24.533 16.008 24.533 16.095Z" fill="black"/>
</g>
<defs>
<clipPath id="clip0_7_200">
<rect width="29" height="29" fill="white" transform="translate(0.578979)"/>
</clipPath>
</defs>
</svg>
