<svg width="27" height="26" viewBox="0 0 27 26" fill="none" xmlns="http://www.w3.org/2000/svg">
<g clip-path="url(#clip0_7_194)">
<path d="M26.1922 5.34854C25.2876 5.74937 24.3159 6.02021 23.2943 6.14262C24.3484 5.5119 25.137 4.51921 25.513 3.34979C24.5226 3.93803 23.4388 4.35209 22.3085 4.57396C21.5484 3.76239 20.5416 3.22448 19.4445 3.04372C18.3474 2.86296 17.2212 3.04948 16.241 3.57431C15.2607 4.09915 14.4811 4.93293 14.0233 5.94622C13.5655 6.95951 13.455 8.0956 13.709 9.17812C11.7023 9.07737 9.73923 8.5558 7.94718 7.64727C6.15513 6.73874 4.57413 5.46355 3.3068 3.90446C2.87347 4.65196 2.62431 5.51862 2.62431 6.44162C2.62382 7.27254 2.82844 8.09072 3.22001 8.82358C3.61157 9.55645 4.17798 10.1813 4.86897 10.6428C4.0676 10.6173 3.28392 10.4008 2.58314 10.0112V10.0762C2.58306 11.2416 2.98617 12.3711 3.72409 13.2731C4.462 14.1751 5.48926 14.794 6.63156 15.0249C5.88815 15.2261 5.10875 15.2557 4.35222 15.1115C4.67451 16.1143 5.3023 16.9912 6.1477 17.6194C6.99311 18.2476 8.0138 18.5957 9.06689 18.615C7.27921 20.0184 5.07143 20.7796 2.79872 20.7763C2.39613 20.7764 1.99389 20.7529 1.59406 20.7059C3.90099 22.1891 6.58642 22.9763 9.32905 22.9733C18.6132 22.9733 23.6886 15.2838 23.6886 8.61479C23.6886 8.39812 23.6832 8.17929 23.6735 7.96262C24.6607 7.24868 25.5129 6.36459 26.1901 5.35179L26.1922 5.34854Z" fill="#FFF8E7" fill-opacity="0.9"/>
</g>
<defs>
<clipPath id="clip0_7_194">
<rect width="26" height="26" fill="white" transform="translate(0.578979)"/>
</clipPath>
</defs>
</svg>
